<svg xmlns="http://www.w3.org/2000/svg" viewBox="0 0 423.02 38.74"><defs><style>.cls-1{fill:#91a8e5;}.cls-2{fill:#fff;}.cls-3{fill:#c21717;}</style></defs><title>Asset 1</title><g id="Layer_2" data-name="Layer 2"><g id="Layer_1-2" data-name="Layer 1"><path class="cls-1" d="M13.83,2.88c0,.38-.05.84-.1,1.4s-.1,1.15-.15,1.77-.12,1.25-.19,1.89-.13,1.22-.19,1.76-.1,1-.13,1.38-.05.63-.05.74c-.06,1-.13,1.88-.2,2.71s-.14,1.66-.22,2.48-.16,1.66-.25,2.54-.18,1.83-.27,2.89-.2,2.22-.32,3.51-.24,2.77-.36,4.44l9.76-1a9.91,9.91,0,0,1,1.09-.07c.35,0,.56.05.65.16A.9.9,0,0,1,23,30a.39.39,0,0,1,0,.13c0,.06-.05.16-.1.32l-.24.68c-.1.3-.24.72-.41,1.26L21.73,34c-.17.51-.33,1-.48,1.36a4.1,4.1,0,0,1-.56,1,2.38,2.38,0,0,1-.82.69,3.19,3.19,0,0,1-1.28.33l-1.34.09-2,.07-2.4.08-2.63.12c-.88,0-1.77.05-2.66.06s-1.75,0-2.55,0l-2.22,0c-.67,0-1.23,0-1.67.05a3,3,0,0,1-.89-.1c-.18-.06-.27-.16-.27-.31a2.25,2.25,0,0,1,.17-.74q.17-.48.42-1.08c.17-.4.37-.82.58-1.25l.62-1.27.64-8.42c.13-1.43.25-2.89.38-4.36s.23-2.91.33-4.3l.4-6.25c.09-1.48.16-2.55.19-3.22s0-1,0-1.1c0-.28.05-.52.07-.71a1.9,1.9,0,0,1,.08-.47.57.57,0,0,1,.18-.28.77.77,0,0,1,.35-.14l8.28-2a2,2,0,0,1,.64-.1.41.41,0,0,1,.36.16,1.08,1.08,0,0,1,.11.58.72.72,0,0,1,0,.13A.76.76,0,0,0,13.83,2.88Z"/><path class="cls-1" d="M38.81,10.36a9.62,9.62,0,0,1,4.07.84A10.23,10.23,0,0,1,46,13.37a9.59,9.59,0,0,1,2,3,8.35,8.35,0,0,1,.71,3.3,5.59,5.59,0,0,1-.9,2.94,9.52,9.52,0,0,1-2.51,2.66,14,14,0,0,1-3.88,1.91,16.37,16.37,0,0,1-5,.73,17.5,17.5,0,0,1-3-.28,3.75,3.75,0,0,0,.59,1.74,4.09,4.09,0,0,0,1.25,1.2,5.65,5.65,0,0,0,1.71.7,8.65,8.65,0,0,0,2,.22,11.12,11.12,0,0,0,2.18-.2,14.09,14.09,0,0,0,2-.53c.65-.22,1.27-.46,1.87-.73s1.16-.53,1.7-.8l.36-.08a1.08,1.08,0,0,1,.3,0c0,.51,0,1,0,1.44s0,1,0,1.65,0,1.36,0,2.15a.78.78,0,0,1,.09.24.74.74,0,0,1,0,.18c0,.19-.18.4-.52.62a9,9,0,0,1-1.36.68,19.67,19.67,0,0,1-1.91.69c-.72.22-1.44.42-2.18.6s-1.46.32-2.15.42a13.08,13.08,0,0,1-1.82.16A14.15,14.15,0,0,1,32.62,37a13.07,13.07,0,0,1-4.25-2.54,12.2,12.2,0,0,1-4.07-9.31,15.85,15.85,0,0,1,1.06-5.8,14.24,14.24,0,0,1,3-4.7,14.06,14.06,0,0,1,4.59-3.17A14.57,14.57,0,0,1,38.81,10.36Zm-.28,6.27a3.8,3.8,0,0,0-1.78.42,5,5,0,0,0-1.49,1.18,7.44,7.44,0,0,0-1.17,1.84,12.67,12.67,0,0,0-.8,2.37,35.7,35.7,0,0,0,4-.9,16,16,0,0,0,2.57-.95,4.52,4.52,0,0,0,1.37-1,1.51,1.51,0,0,0,.4-.93,1.26,1.26,0,0,0-.32-.81,3.22,3.22,0,0,0-.79-.66,4.48,4.48,0,0,0-1-.43A3.9,3.9,0,0,0,38.53,16.63Z"/><path class="cls-2" d="M62.19,21.45a21.18,21.18,0,0,1,.63-5.21A20.55,20.55,0,0,1,64.6,11.6a18.26,18.26,0,0,1,2.8-3.92,17.74,17.74,0,0,1,3.67-3,17.45,17.45,0,0,1,4.4-1.95,18.12,18.12,0,0,1,5-.68,21.72,21.72,0,0,1,3.64.27A17.39,17.39,0,0,1,86.84,3a10.31,10.31,0,0,1,2,.91,11.51,11.51,0,0,1,1.31.95s0,0,0,.16,0,.67.06,1.3.09,1.33.14,2.1.1,1.55.14,2.35.06,1.48.06,2.06a.71.71,0,0,1-.09.32c-.06.12-.22.18-.47.18a2.88,2.88,0,0,1-.52-.07,4.85,4.85,0,0,1-1.25-.65c-.51-.34-1.09-.69-1.76-1.06a15,15,0,0,0-2.24-1,7.88,7.88,0,0,0-2.7-.44,7.63,7.63,0,0,0-3.52.81,8,8,0,0,0-2.69,2.27,10.88,10.88,0,0,0-1.72,3.44A14.62,14.62,0,0,0,72.91,21a18.84,18.84,0,0,0,.37,3.85,10.58,10.58,0,0,0,1.15,3.1A6.1,6.1,0,0,0,76.33,30a4.62,4.62,0,0,0,2.66.76,10.61,10.61,0,0,0,3.38-.64l.54-3.32H78.4c.35-1.91.65-3.4.9-4.49A17.87,17.87,0,0,1,80,19.82a2.17,2.17,0,0,1,.68-1,1.6,1.6,0,0,1,.83-.21H93.93a3.07,3.07,0,0,1,.79.07c.16.05.25.21.25.49a3.36,3.36,0,0,1,0,.51q0,.3-.12.72l-1.18,4c-.14.5-.26.89-.35,1.16a1.64,1.64,0,0,1-.36.62.93.93,0,0,1-.57.23,9.6,9.6,0,0,1-1,0c-.26,0-.41.1-.45.31a5.86,5.86,0,0,0-.12.63c-.1.69-.19,1.38-.28,2.07s-.19,1.32-.27,1.91-.18,1.11-.28,1.55a4.3,4.3,0,0,1-.28,1c-1.07.68-2,1.27-2.91,1.79a18.93,18.93,0,0,1-2.61,1.27,15.17,15.17,0,0,1-2.74.77,19,19,0,0,1-3.3.26,16.16,16.16,0,0,1-6.23-1.21,15.15,15.15,0,0,1-5-3.38,16,16,0,0,1-3.36-5.21A17.49,17.49,0,0,1,62.19,21.45Z"/><path class="cls-2" d="M109.57,37.92a14.7,14.7,0,0,1-5.84-1.09,12.52,12.52,0,0,1-4.21-2.89A12,12,0,0,1,97,29.79a14.38,14.38,0,0,1-.85-4.87A14,14,0,0,1,99.26,16a13.32,13.32,0,0,1,3.56-3,13.62,13.62,0,0,1,4.58-1.64c.25,0,.38-.07.38-.16a1.88,1.88,0,0,0-.06-.49,1.55,1.55,0,0,1-.06-.39.51.51,0,0,1,.09-.35.33.33,0,0,1,.22-.09,25.1,25.1,0,0,1,7.66,1,14.28,14.28,0,0,1,5.15,2.8,10.46,10.46,0,0,1,2.88,4.17,14.9,14.9,0,0,1,.89,5.17,15.77,15.77,0,0,1-1.18,6.28A13.54,13.54,0,0,1,120.15,34a14,14,0,0,1-4.76,2.91A16.72,16.72,0,0,1,109.57,37.92Zm-4.36-13.26a11.86,11.86,0,0,0,.27,2.52,7.42,7.42,0,0,0,.89,2.27A5.14,5.14,0,0,0,108,31.09a4.81,4.81,0,0,0,2.53.62,4.41,4.41,0,0,0,1.9-.48,4.68,4.68,0,0,0,1.4-1.14,6.54,6.54,0,0,0,1-1.56,9.89,9.89,0,0,0,.61-1.81,13.51,13.51,0,0,0,.32-1.83,14.05,14.05,0,0,0,.1-1.63,8.18,8.18,0,0,0-.37-2.4,6.31,6.31,0,0,0-1.07-2.08,5.41,5.41,0,0,0-1.76-1.45,5.11,5.11,0,0,0-2.42-.55,3.54,3.54,0,0,0-2.38.83,6.19,6.19,0,0,0-1.55,2.07,11,11,0,0,0-.83,2.58A12.39,12.39,0,0,0,105.21,24.66Z"/><path class="cls-2" d="M152.51,33.76a4.52,4.52,0,0,1-.19,1.08.69.69,0,0,1-.52.39c-1.33.37-2.73.76-4.18,1.14a26.43,26.43,0,0,0-4.24,1.52.58.58,0,0,1-.21,0c-.13,0-.2,0-.22-.1a.46.46,0,0,1,0-.21,1.31,1.31,0,0,1,0-.17L143,37c0-.22.07-.51.13-.89s.13-.88.22-1.51a26.28,26.28,0,0,1-4.68,2.52,10.37,10.37,0,0,1-3.62.79c-2.63,0-4.54-.64-5.75-1.9s-1.8-3.16-1.8-5.68c0-.45,0-.92,0-1.4s.07-1,.14-1.48q.27-2.78.45-4.77c.13-1.33.23-2.46.31-3.39s.14-1.69.2-2.28.1-1.08.14-1.47.07-.72.1-1,0-.52.08-.77a7.63,7.63,0,0,1,.18-1.06c.05-.2.23-.34.53-.4l2.11-.39c.67-.12,1.33-.24,2-.38s1.32-.28,2-.43,1.4-.35,2.15-.57h.19c.19,0,.28.06.28.19v0c-.06.54-.12,1-.16,1.51s-.1,1-.14,1.45-.1,1-.16,1.6-.12,1.22-.2,2-.17,1.61-.28,2.58-.25,2.11-.4,3.4c-.1.94-.19,1.88-.29,2.82s-.14,1.8-.14,2.6a6.62,6.62,0,0,0,.1,1.22,2.39,2.39,0,0,0,.34.94,1.63,1.63,0,0,0,.65.6,2.11,2.11,0,0,0,1,.22,5.65,5.65,0,0,0,1.34-.23,5.86,5.86,0,0,0,1.7-.78,5.61,5.61,0,0,0,1.5-1.46,4.36,4.36,0,0,0,.74-2.3q.17-2.34.3-3.9c.08-1.05.16-1.93.22-2.65s.12-1.31.17-1.8.09-1,.13-1.4.07-.93.1-1.44.06-1.16.1-1.93a4.69,4.69,0,0,1,.17-1.07.65.65,0,0,1,.53-.39l4.39-.86a39.73,39.73,0,0,0,4.39-1.12c.13,0,.2,0,.22.06a.29.29,0,0,1,0,.17Z"/><path class="cls-2" d="M177.07,17.48l-1.11-.1c-.4,0-.84-.06-1.29-.06a12.61,12.61,0,0,0-2.11.18,5.94,5.94,0,0,0-2,.69A5,5,0,0,0,169,19.62a5.08,5.08,0,0,0-.85,2.35l-.27,2.86c-.07.75-.12,1.36-.15,1.84s-.06.87-.09,1.16,0,.56-.05.81c0,.07,0,.24,0,.52s-.06.62-.11,1-.09.79-.13,1.23-.08.85-.13,1.23-.08.7-.1,1,0,.45,0,.52,0,.23,0,.32a1.94,1.94,0,0,1,0,.24.37.37,0,0,1-.18.32,2.67,2.67,0,0,1-.79.3l-6.25,2.24-.69.23a2.46,2.46,0,0,1-.82.15,1,1,0,0,1-.58-.17.62.62,0,0,1-.25-.57l2-23.38a5.15,5.15,0,0,1,.18-1.07.63.63,0,0,1,.53-.39l4.43-.86a39,39,0,0,0,4.44-1.12c.12,0,.2,0,.22.06a.29.29,0,0,1,0,.17s0,.08,0,.15,0,.2-.07.42-.1.55-.17,1-.17,1.08-.29,1.88a16.41,16.41,0,0,1,2.39-1.56,21.29,21.29,0,0,1,2.63-1.21,20.71,20.71,0,0,1,2.55-.81,9.68,9.68,0,0,1,2.15-.29Z"/><path class="cls-2" d="M213.43,37.54l-.68.22a2.54,2.54,0,0,1-.83.16,1,1,0,0,1-.58-.17.64.64,0,0,1-.24-.57V37c.11-1.14.2-2.08.28-2.79s.14-1.3.19-1.74.08-.77.12-1,.06-.44.09-.64.06-.41.08-.65.06-.57.11-1,.11-1,.18-1.72.16-1.66.27-2.82c.06-.63.13-1.25.2-1.88a15.25,15.25,0,0,0,.1-1.71,14.13,14.13,0,0,0-.1-1.8,4.68,4.68,0,0,0-.38-1.39,2.24,2.24,0,0,0-.74-.91,2.08,2.08,0,0,0-1.21-.33,4.66,4.66,0,0,0-1.16.19,4.87,4.87,0,0,0-1.46.67,5.63,5.63,0,0,0-1.32,1.27,4.27,4.27,0,0,0-.75,2v.09c-.19,1.79-.36,3.35-.51,4.66l-.39,3.39c-.11.94-.2,1.73-.27,2.36s-.13,1.16-.18,1.59-.08.79-.1,1.07a7.64,7.64,0,0,0,0,.8c0,.13,0,.24,0,.32a2.15,2.15,0,0,1,0,.23.4.4,0,0,1-.18.32,3.29,3.29,0,0,1-.79.31l-5.55,1.61-.68.22a2.49,2.49,0,0,1-.83.16,1,1,0,0,1-.57-.17.62.62,0,0,1-.25-.57V37c.11-1.14.2-2.08.27-2.79s.13-1.3.19-1.74.1-.77.13-1,.06-.44.08-.64,0-.41.08-.65.07-.57.11-1,.09-1,.16-1.72.17-1.66.28-2.82c.06-.63.13-1.25.2-1.88a15.25,15.25,0,0,0,.1-1.71,16.4,16.4,0,0,0-.09-1.8,5.05,5.05,0,0,0-.34-1.39,2.21,2.21,0,0,0-.68-.91,1.7,1.7,0,0,0-1.08-.33,5.24,5.24,0,0,0-1.29.23,6.2,6.2,0,0,0-1.63.78,5.4,5.4,0,0,0-1.43,1.43,4.19,4.19,0,0,0-.72,2.18c-.13,1.17-.23,2.12-.31,2.87s-.14,1.36-.19,1.84-.08.86-.11,1.16,0,.56-.06.81c0,.06,0,.24-.07.53s-.06.64-.1,1-.08.83-.12,1.3-.07.89-.11,1.29-.06.75-.08,1,0,.47,0,.53v.43a2.33,2.33,0,0,1,0,.4.58.58,0,0,1-.14.31,1,1,0,0,1-.34.25,4.18,4.18,0,0,1-.63.26l-6.18,2.2-.68.23a2.52,2.52,0,0,1-.83.15,1,1,0,0,1-.58-.17.64.64,0,0,1-.24-.57l2.12-24.06A5.29,5.29,0,0,1,181.1,12a.64.64,0,0,1,.53-.38l4.39-.87a38,38,0,0,0,4.38-1.12c.13,0,.2,0,.23.06a.42.42,0,0,1,0,.18l-.3,3.44c.58-.29,1.23-.62,2-1a24.61,24.61,0,0,1,2.27-1,21.27,21.27,0,0,1,2.43-.75,10.8,10.8,0,0,1,2.42-.29,6.3,6.3,0,0,1,3,.74,5.68,5.68,0,0,1,2.28,2.47A22,22,0,0,1,207,12.29a19.76,19.76,0,0,1,2.43-1,17.27,17.27,0,0,1,2.49-.66,12.82,12.82,0,0,1,2.43-.24,9,9,0,0,1,2.81.43,5.67,5.67,0,0,1,2.3,1.39A6.72,6.72,0,0,1,221,14.71a10.94,10.94,0,0,1,.57,3.76q0,.57,0,1.17c0,.4,0,.82-.09,1.24L220.34,31c-.07.66-.12,1.27-.14,1.83s0,1.21,0,1.94a2.92,2.92,0,0,0,0,.32,1.93,1.93,0,0,1,0,.23.39.39,0,0,1-.17.33,3.41,3.41,0,0,1-.79.3Z"/><path class="cls-2" d="M239.17,10.36a9.62,9.62,0,0,1,4.07.84,10.23,10.23,0,0,1,3.14,2.17,9.59,9.59,0,0,1,2,3,8.35,8.35,0,0,1,.71,3.3,5.59,5.59,0,0,1-.9,2.94,9.52,9.52,0,0,1-2.51,2.66,13.91,13.91,0,0,1-3.88,1.91,16.37,16.37,0,0,1-5,.73,17.3,17.3,0,0,1-3-.28,3.54,3.54,0,0,0,.59,1.74,4,4,0,0,0,1.25,1.2,5.45,5.45,0,0,0,1.71.7,8.5,8.5,0,0,0,2,.22,11.12,11.12,0,0,0,2.18-.2,14.59,14.59,0,0,0,2-.53c.64-.22,1.26-.46,1.86-.73s1.16-.53,1.7-.8l.36-.08a1.08,1.08,0,0,1,.3,0c0,.51,0,1,0,1.44s0,1,0,1.65,0,1.36,0,2.15a.59.59,0,0,1,.09.24.74.74,0,0,1,0,.18c0,.19-.18.4-.52.62a9,9,0,0,1-1.36.68,18.75,18.75,0,0,1-1.91.69c-.72.22-1.44.42-2.18.6s-1.46.32-2.15.42a13.08,13.08,0,0,1-1.82.16A14.15,14.15,0,0,1,233,37a13.07,13.07,0,0,1-4.25-2.54,12.2,12.2,0,0,1-4.07-9.31,15.85,15.85,0,0,1,1.06-5.8,14.24,14.24,0,0,1,3-4.7,14.06,14.06,0,0,1,4.59-3.17A14.6,14.6,0,0,1,239.17,10.36Zm-.28,6.27a3.83,3.83,0,0,0-1.78.42,5,5,0,0,0-1.49,1.18,7.42,7.42,0,0,0-1.16,1.84,12,12,0,0,0-.81,2.37,35.7,35.7,0,0,0,4-.9,16,16,0,0,0,2.57-.95,4.52,4.52,0,0,0,1.37-1,1.51,1.51,0,0,0,.4-.93,1.26,1.26,0,0,0-.32-.81,3.22,3.22,0,0,0-.79-.66,4.48,4.48,0,0,0-1-.43A3.9,3.9,0,0,0,238.89,16.63Z"/><path class="cls-2" d="M264.77,18.5c-.22,1.65-.43,3.3-.62,4.94s-.32,3.18-.37,4.61a7.29,7.29,0,0,0,.14,1.54,2.52,2.52,0,0,0,.42,1,1.46,1.46,0,0,0,.65.51,2.24,2.24,0,0,0,.84.16,6.88,6.88,0,0,0,1.66-.23,14.31,14.31,0,0,0,1.79-.58,4.84,4.84,0,0,1,.48-.17,1.28,1.28,0,0,1,.35-.06.3.3,0,0,1,.31.21,3.93,3.93,0,0,1,.17.74c.05.36.14.83.25,1.43s.29,1.35.54,2.27c0,.07,0,.14,0,.2s0,.1,0,.15a.5.5,0,0,1-.25.47,4.37,4.37,0,0,1-.81.33c-.65.22-1.33.45-2.05.67s-1.42.44-2.12.63-1.37.34-2,.46a9.38,9.38,0,0,1-1.7.18c-2.62,0-4.54-.66-5.74-2s-1.81-3.3-1.81-6c0-.46,0-.93,0-1.41s.07-1,.12-1.49c.16-1.58.29-3.07.41-4.47s.24-2.76.37-4.05H253.4a11.17,11.17,0,0,1-1.84-.11c-.38-.07-.57-.21-.57-.43a1.6,1.6,0,0,1,.24-.51q.24-.42.6-1l.79-1.24.82-1.24.67-1,.35-.52h1.68c.14-1.2.25-2.2.34-3s.16-1.48.21-2,.11-.94.16-1.24a2.62,2.62,0,0,1,.15-.64.43.43,0,0,1,.21-.28,2.94,2.94,0,0,1,.34-.1l2.06-.39,2-.37c.66-.12,1.33-.27,2-.43s1.39-.36,2.13-.58h.09a.22.22,0,0,1,.1,0c.19,0,.28.07.28.19v.05c-.08.87-.2,2.07-.36,3.61s-.35,3.29-.56,5.24h6.33a.59.59,0,0,1,.36.13.5.5,0,0,1,.18.43,5.06,5.06,0,0,1-.28.85q-.28.74-.81,1.92l-.85,1.91a1.73,1.73,0,0,1-.34.52,1.28,1.28,0,0,1-.72.21Z"/><path class="cls-3" d="M287.61,36.38A1.08,1.08,0,0,1,287,36a1,1,0,0,1-.16-.56.2.2,0,0,1,0-.09.25.25,0,0,0,0-.1q.19-2.55.42-5.34t.48-5.69c.17-1.92.35-3.85.52-5.77s.34-3.78.52-5.59h0a2.33,2.33,0,0,0-.53.16l-1,.33c-.37.11-.74.22-1.12.31a3.76,3.76,0,0,1-.92.15.44.44,0,0,1-.43-.24,1,1,0,0,1-.13-.52,1.09,1.09,0,0,1,.07-.4c.42-1.23.86-2.37,1.32-3.44s.91-2.18,1.37-3.31a29.74,29.74,0,0,1,3.72-1.68A35.2,35.2,0,0,1,295,3a36.14,36.14,0,0,1,3.93-.73,31.2,31.2,0,0,1,3.8-.25,20.33,20.33,0,0,1,4.84.55,12.37,12.37,0,0,1,4,1.64A8.25,8.25,0,0,1,314.21,7a7.46,7.46,0,0,1,1,3.9,4.29,4.29,0,0,1-.42,1.86,8.2,8.2,0,0,1-1.1,1.72,12.58,12.58,0,0,1-1.5,1.51c-.55.46-1.09.88-1.63,1.26l2,1.5a9.15,9.15,0,0,1,1.54,1.4,5,5,0,0,1,1,1.64,6.51,6.51,0,0,1,.33,2.21,10.27,10.27,0,0,1-.7,3.78,12.68,12.68,0,0,1-1.91,3.35,15.63,15.63,0,0,1-2.88,2.8,19.37,19.37,0,0,1-3.61,2.13,20.57,20.57,0,0,1-4.1,1.37,20,20,0,0,1-4.35.49,18.62,18.62,0,0,1-2.15-.17q-1.35-.16-2.82-.39c-1-.15-2-.31-2.9-.49S288.26,36.52,287.61,36.38ZM298.49,10.5q-.45,2.79-.76,5.65t-.53,5.57q-.22,2.7-.39,5.13c-.11,1.62-.22,3.07-.33,4.34.63,0,1.31,0,2-.1a18.2,18.2,0,0,0,2.19-.37,15.67,15.67,0,0,0,2.11-.67,7.49,7.49,0,0,0,1.8-1,4.8,4.8,0,0,0,1.25-1.45,3.8,3.8,0,0,0,.48-1.92,1.83,1.83,0,0,0-.41-1.17,3.48,3.48,0,0,0-1-.87,7.23,7.23,0,0,0-1.38-.62c-.51-.16-1-.3-1.48-.4s-.92-.18-1.32-.23l-.91-.13c-.22,0-.36-.11-.42-.24a1.09,1.09,0,0,1-.1-.47,2.07,2.07,0,0,1,.38-.92l1-1.68,1-1.58a15,15,0,0,0,1.38-.59,8.48,8.48,0,0,0,1.38-.81,4.56,4.56,0,0,0,1.06-1,2.07,2.07,0,0,0,.43-1.26,4.56,4.56,0,0,0-.84-3,2.92,2.92,0,0,0-2.42-1A13,13,0,0,0,298.49,10.5Z"/><path class="cls-3" d="M337.28,17.48l-1.11-.1c-.41,0-.84-.06-1.3-.06a12.7,12.7,0,0,0-2.11.18,6,6,0,0,0-2,.69,5,5,0,0,0-1.58,1.43,5.08,5.08,0,0,0-.85,2.35l-.27,2.86c-.07.75-.12,1.36-.15,1.84s-.06.87-.08,1.16-.05.56-.06.81c0,.07,0,.24,0,.52s-.06.62-.1,1-.09.79-.13,1.23-.09.85-.13,1.23-.09.7-.11,1,0,.45,0,.52a3.11,3.11,0,0,0,0,.32,1.93,1.93,0,0,1,0,.24.37.37,0,0,1-.18.32,2.67,2.67,0,0,1-.79.3L320,37.54l-.68.23a2.52,2.52,0,0,1-.83.15,1,1,0,0,1-.58-.17.65.65,0,0,1-.25-.57l2-23.38a5.15,5.15,0,0,1,.18-1.07.65.65,0,0,1,.53-.39l4.44-.86a39.31,39.31,0,0,0,4.43-1.12c.13,0,.2,0,.23.06a.4.4,0,0,1,0,.17.92.92,0,0,1,0,.15c0,.06,0,.2-.07.42s-.1.55-.17,1-.17,1.08-.29,1.88a16.41,16.41,0,0,1,2.39-1.56A22,22,0,0,1,334,11.27a20.71,20.71,0,0,1,2.55-.81,9.76,9.76,0,0,1,2.15-.29Z"/><path class="cls-3" d="M352.87,10.36a9.62,9.62,0,0,1,4.07.84,10.23,10.23,0,0,1,3.14,2.17,9.59,9.59,0,0,1,2,3,8.35,8.35,0,0,1,.71,3.3,5.59,5.59,0,0,1-.9,2.94,9.52,9.52,0,0,1-2.51,2.66,13.91,13.91,0,0,1-3.88,1.91,16.41,16.41,0,0,1-5,.73,17.5,17.5,0,0,1-3-.28,3.75,3.75,0,0,0,.59,1.74,4.09,4.09,0,0,0,1.25,1.2,5.6,5.6,0,0,0,1.72.7,8.47,8.47,0,0,0,2,.22,11.15,11.15,0,0,0,2.19-.2,14.59,14.59,0,0,0,2-.53c.64-.22,1.26-.46,1.86-.73s1.16-.53,1.7-.8l.36-.08a1.08,1.08,0,0,1,.3,0c0,.51,0,1,0,1.44s0,1,0,1.65,0,1.36,0,2.15a.78.78,0,0,1,.09.24.74.74,0,0,1,0,.18c0,.19-.18.4-.52.62a9,9,0,0,1-1.36.68,19.67,19.67,0,0,1-1.91.69c-.72.22-1.44.42-2.18.6s-1.46.32-2.15.42a13.08,13.08,0,0,1-1.82.16,14.15,14.15,0,0,1-4.94-.89,13.07,13.07,0,0,1-4.25-2.54,12.2,12.2,0,0,1-4.07-9.31,15.85,15.85,0,0,1,1.06-5.8,14.24,14.24,0,0,1,3-4.7A14.06,14.06,0,0,1,347,11.51,14.6,14.6,0,0,1,352.87,10.36Zm-.28,6.27a3.8,3.8,0,0,0-1.78.42,5,5,0,0,0-1.49,1.18,7.44,7.44,0,0,0-1.17,1.84,12.67,12.67,0,0,0-.8,2.37,35.7,35.7,0,0,0,4-.9,16,16,0,0,0,2.57-.95,4.52,4.52,0,0,0,1.37-1,1.51,1.51,0,0,0,.4-.93,1.26,1.26,0,0,0-.32-.81,3.22,3.22,0,0,0-.79-.66,4.48,4.48,0,0,0-1-.43A3.9,3.9,0,0,0,352.59,16.63Z"/><path class="cls-3" d="M389.84,32a1.11,1.11,0,0,0,0,.17v.16a2.2,2.2,0,0,0,.19,1,2.64,2.64,0,0,0,.41.63,3,3,0,0,0,.42.4c.12.11.18.2.18.28s-.23.42-.7.61L384,37.89s-.07,0-.17,0-.25-.11-.37-.33a4.86,4.86,0,0,1-.37-.84c-.12-.34-.23-.7-.33-1.09s-.19-.74-.27-1.07a9.56,9.56,0,0,1-3.21,2.52,8,8,0,0,1-3.42.81A9.18,9.18,0,0,1,372,37a10.22,10.22,0,0,1-3.35-2.49,12.3,12.3,0,0,1-2.35-3.9,14.18,14.18,0,0,1-.88-5.14,18.26,18.26,0,0,1,1-6.16A15.18,15.18,0,0,1,369,14.56a11.86,11.86,0,0,1,3.91-3.1,10.44,10.44,0,0,1,4.73-1.1,8,8,0,0,1,3.35.72,14,14,0,0,1,3,1.85,8.42,8.42,0,0,0,.17-1.13,2.41,2.41,0,0,1,.1-.66.51.51,0,0,1,.32-.32,3.24,3.24,0,0,1,.78-.13c1.13-.16,2.26-.3,3.39-.44s2.3-.23,3.52-.29Zm-7-8.9a25,25,0,0,0,.32-2.53c.05-.8.1-1.53.13-2.19-.25-.19-.53-.38-.82-.59a9.37,9.37,0,0,0-.94-.57,5.16,5.16,0,0,0-1.06-.44,4.09,4.09,0,0,0-1.17-.17,3,3,0,0,0-2.13.83,6.33,6.33,0,0,0-1.4,2A10.74,10.74,0,0,0,375,22a14.61,14.61,0,0,0-.23,2.38,11.59,11.59,0,0,0,1,5.46,3,3,0,0,0,2.73,1.74,3.82,3.82,0,0,0,1.58-.41A8.64,8.64,0,0,0,381.8,30Z"/><path class="cls-3" d="M407.92.87l-.85,8.19c-.11,1.1-.23,2.22-.34,3.35s-.24,2.22-.35,3.26-.21,2-.3,2.87-.18,1.61-.24,2.18l1.63-1.8,2.64-3.09,1-1.13c.31-.38.6-.71.85-1l.61-.73a3.79,3.79,0,0,1,.29-.35l9.48-.66.15,0h.16c.26,0,.4.07.4.21s-.17.35-.5.73l-7.38,8.26L414,22.4l-1.5,1.6,3.45,4.1,5.94,6.39a.46.46,0,0,0,.21.18l.28.11.23.1a.2.2,0,0,1,.11.18.2.2,0,0,1,0,.14,1.29,1.29,0,0,1-.22.19,6.19,6.19,0,0,1-.75.47q-.53.31-1.23.69l-1.51.76c-.54.26-1.06.5-1.56.71s-1,.39-1.39.52a3.78,3.78,0,0,1-1,.2,1.25,1.25,0,0,1-.56-.14,2.2,2.2,0,0,1-.6-.52c-.3-.35-.67-.8-1.12-1.36s-.93-1.17-1.45-1.84-1-1.36-1.59-2.07-1.07-1.4-1.56-2.06L406.77,29c-.4-.53-.71-.95-.93-1.27a1.12,1.12,0,0,1-.23.18,1.14,1.14,0,0,0-.23.15,1,1,0,0,0-.18.23.85.85,0,0,0-.07.36c0,.07,0,.24,0,.53s-.07.64-.11,1-.08.83-.13,1.29-.09.88-.13,1.28-.07.75-.11,1,0,.47,0,.53a2.1,2.1,0,0,0,0,.27,1.55,1.55,0,0,1,0,.21.43.43,0,0,1-.18.38,2.78,2.78,0,0,1-.86.32l-6.18,2-.68.23a2.52,2.52,0,0,1-.83.15,1,1,0,0,1-.58-.17.69.69,0,0,1-.24-.61l3-34a.85.85,0,0,0,0-.23,1.5,1.5,0,0,1,0-.22.54.54,0,0,1,.18-.39A2,2,0,0,1,399,2L405.58.38a4.09,4.09,0,0,0,.69-.21,2.23,2.23,0,0,1,.82-.17,1.27,1.27,0,0,1,.58.14.56.56,0,0,1,.27.54.31.31,0,0,1,0,.1A.28.28,0,0,0,407.92.87Z"/></g></g></svg>